# xmcd CD database file
#
# Track frame offsets:
#	150
#	16494
#	32972
#	48217
#	62942
#	82920
#	101394
#	117984
#	140364
#	158462
#	186181
#	202074
#	219704
#	237842
#	260236
#	279890
#	301695
#
# Disc length: 4250 seconds
#
# Revision: 0
# Processed by: cddbd v1.5.1PL2 Copyright (c) Steve Scherf et al.
# Submitted via: CDex 1.51
#
DISCID=e9109811
DTITLE=Various Artits - Da Vinci Code Of Life
DYEAR=2006
DGENRE=New Age
TTITLE0=Moving Spirits
TTITLE1=Adiemus
TTITLE2=Incense
TTITLE3=Era
TTITLE4=Sadeness Part 2
TTITLE5=Ready For The Storm
TTITLE6=Cloister Secrets
TTITLE7=Let There Be Light
TTITLE8=Song Of Tears
TTITLE9=Innocienti
TTITLE10=So Sad
TTITLE11=Eden
TTITLE12=return To Innocence
TTITLE13=Grate ved Gate
TTITLE14=Relic
TTITLE15=Perfect Time
TTITLE16=Beyond The Rim
EXTD=YEAR: 2006
EXTT0=
EXTT1=
EXTT2=
EXTT3=
EXTT4=
EXTT5=
EXTT6=
EXTT7=
EXTT8=
EXTT9=
EXTT10=
EXTT11=
EXTT12=
EXTT13=
EXTT14=
EXTT15=
EXTT16=
PLAYORDER=
